<svg width="212" height="48" viewBox="0 0 212 48" fill="none" xmlns="http://www.w3.org/2000/svg">
<path d="M26.5 0.8125C11.865 0.8125 0 10.4519 0 22.3437C0 27.474 2.21627 32.1788 5.90246 35.8774C4.6023 41.0853 0.279492 45.7352 0.227734 45.79C0.116272 45.9074 0.0416836 46.0549 0.0132035 46.2143C-0.0152766 46.3736 0.00360205 46.5378 0.0675022 46.6866C0.131402 46.8353 0.237518 46.962 0.372713 47.0511C0.507908 47.1401 0.666246 47.1875 0.828125 47.1875C7.68707 47.1875 12.8349 43.9009 15.3824 41.8689C18.7663 43.1431 22.524 43.875 26.5 43.875C41.135 43.875 53 34.2356 53 22.3437C53 10.4519 41.135 0.8125 26.5 0.8125ZM28.9844 32.1198V33.9375C28.9844 34.8526 28.2432 35.5937 27.3281 35.5937H25.6719C24.7568 35.5937 24.0156 34.8526 24.0156 33.9375V32.1022C22.8335 31.9624 21.7093 31.5649 20.7259 30.9159C20.082 30.4904 20.0199 29.5588 20.5654 29.0133L22.379 27.1997C22.7662 26.8125 23.3428 26.7608 23.8396 26.9895C24.1688 27.1407 24.5291 27.2193 24.9017 27.2193H28.295C28.7773 27.2193 29.1686 26.828 29.1686 26.3477C29.1686 25.9595 28.9078 25.6148 28.5351 25.5082L23.3521 24.0279C21.0489 23.3706 19.2104 21.4701 18.9102 19.0934C18.491 15.7736 20.8801 12.9414 24.0156 12.5667V10.75C24.0156 9.83492 24.7568 9.09375 25.6719 9.09375H27.3281C28.2432 9.09375 28.9844 9.83492 28.9844 10.75V12.5853C30.1665 12.7251 31.2907 13.1226 32.2741 13.7716C32.918 14.1971 32.9801 15.1287 32.4346 15.6742L30.621 17.4878C30.2338 17.875 29.6572 17.9267 29.1604 17.698C28.8271 17.5456 28.4647 17.4672 28.0983 17.4682H24.705C24.2227 17.4682 23.8314 17.8595 23.8314 18.3398C23.8314 18.7279 24.0922 19.0727 24.4649 19.1793L29.6479 20.6595C31.9511 21.3179 33.7896 23.2174 34.0898 25.5941C34.509 28.9128 32.1199 31.745 28.9844 32.1198Z" fill="#00B37E"/>
<path d="M81.168 26.466H84.9034C84.8284 27.6903 84.4911 28.7771 83.8915 29.7266C83.3001 30.676 82.4714 31.4173 81.4054 31.9503C80.3477 32.4833 79.0734 32.7499 77.5826 32.7499C76.4166 32.7499 75.3713 32.55 74.4469 32.1502C73.5224 31.7421 72.7312 31.1591 72.0732 30.4012C71.4236 29.6433 70.9281 28.7272 70.5866 27.6528C70.2451 26.5784 70.0744 25.3749 70.0744 24.0424V22.7806C70.0744 21.448 70.2493 20.2445 70.5991 19.1701C70.9572 18.0874 71.4653 17.1671 72.1232 16.4092C72.7895 15.6513 73.5849 15.0683 74.5093 14.6602C75.4338 14.2521 76.4666 14.0481 77.6076 14.0481C79.1234 14.0481 80.4018 14.3229 81.4429 14.8726C82.4923 15.4223 83.3043 16.1802 83.879 17.1463C84.462 18.1124 84.8118 19.2118 84.9284 20.4444H81.1805C81.1389 19.7115 80.9931 19.091 80.7433 18.583C80.4934 18.0666 80.1145 17.6793 79.6064 17.4211C79.1067 17.1546 78.4404 17.0214 77.6076 17.0214C76.9829 17.0214 76.4374 17.138 75.971 17.3712C75.5046 17.6044 75.1132 17.9583 74.7967 18.4331C74.4802 18.9078 74.2428 19.5075 74.0846 20.232C73.9347 20.9483 73.8597 21.7895 73.8597 22.7556V24.0424C73.8597 24.9835 73.9305 25.8122 74.0721 26.5284C74.2137 27.2364 74.4302 27.836 74.7217 28.3274C75.0215 28.8104 75.4047 29.1769 75.8711 29.4268C76.3458 29.6683 76.9163 29.7891 77.5826 29.7891C78.3655 29.7891 79.0109 29.6641 79.519 29.4143C80.027 29.1644 80.4143 28.7938 80.6808 28.3024C80.9556 27.811 81.118 27.1989 81.168 26.466ZM94.4354 29.4517V23.4302C94.4354 22.9971 94.3646 22.6265 94.223 22.3183C94.0814 22.0019 93.8607 21.7562 93.5609 21.5813C93.2694 21.4064 92.8905 21.3189 92.4241 21.3189C92.0243 21.3189 91.6787 21.3897 91.3872 21.5313C91.0957 21.6645 90.8708 21.8603 90.7125 22.1185C90.5543 22.3683 90.4752 22.664 90.4752 23.0054H86.8772C86.8772 22.4308 87.0105 21.8853 87.277 21.3689C87.5435 20.8525 87.9308 20.3986 88.4389 20.0072C88.9469 19.6074 89.5507 19.2951 90.2503 19.0702C90.9582 18.8453 91.7495 18.7329 92.624 18.7329C93.6733 18.7329 94.6061 18.9078 95.4223 19.2576C96.2385 19.6074 96.8798 20.1321 97.3462 20.8317C97.821 21.5313 98.0583 22.4058 98.0583 23.4552V29.2394C98.0583 29.9806 98.1041 30.5886 98.1958 31.0633C98.2874 31.5297 98.4206 31.9378 98.5955 32.2876V32.5H94.9601C94.7852 32.1335 94.652 31.6755 94.5603 31.1258C94.4771 30.5678 94.4354 30.0098 94.4354 29.4517ZM94.9101 24.2672L94.9351 26.3036H92.9238C92.4491 26.3036 92.0368 26.3577 91.687 26.466C91.3372 26.5742 91.0499 26.7283 90.825 26.9282C90.6001 27.1198 90.4335 27.3446 90.3253 27.6028C90.2253 27.861 90.1754 28.1442 90.1754 28.4523C90.1754 28.7605 90.2461 29.0395 90.3877 29.2893C90.5293 29.5309 90.7334 29.7224 90.9999 29.864C91.2664 29.9973 91.5787 30.0639 91.9368 30.0639C92.4782 30.0639 92.9488 29.9556 93.3485 29.7391C93.7483 29.5225 94.0565 29.256 94.273 28.9395C94.4979 28.6231 94.6145 28.3232 94.6228 28.0401L95.5723 29.5642C95.439 29.9057 95.2558 30.2596 95.0226 30.6261C94.7977 30.9925 94.5104 31.3382 94.1606 31.663C93.8108 31.9795 93.3902 32.2418 92.8988 32.45C92.4074 32.6499 91.8244 32.7499 91.1498 32.7499C90.292 32.7499 89.5132 32.5791 88.8136 32.2377C88.1224 31.8879 87.5727 31.409 87.1646 30.801C86.7648 30.1847 86.5649 29.4851 86.5649 28.7022C86.5649 27.9943 86.6982 27.3654 86.9647 26.8158C87.2312 26.2661 87.6227 25.8038 88.139 25.4291C88.6637 25.0459 89.3175 24.7586 90.1004 24.5671C90.8833 24.3672 91.7911 24.2672 92.8238 24.2672H94.9101ZM108.14 28.7646C108.14 28.5065 108.065 28.2733 107.915 28.065C107.765 27.8568 107.486 27.6653 107.078 27.4904C106.678 27.3071 106.1 27.1406 105.342 26.9907C104.659 26.8407 104.022 26.6534 103.43 26.4285C102.847 26.1953 102.339 25.9163 101.906 25.5915C101.481 25.2666 101.148 24.8835 100.907 24.4421C100.665 23.9924 100.544 23.4802 100.544 22.9055C100.544 22.3392 100.665 21.8061 100.907 21.3064C101.157 20.8067 101.511 20.3653 101.969 19.9822C102.435 19.5907 103.001 19.2867 103.668 19.0702C104.342 18.8453 105.1 18.7329 105.941 18.7329C107.116 18.7329 108.123 18.9203 108.965 19.2951C109.814 19.6699 110.464 20.1862 110.913 20.8442C111.372 21.4938 111.601 22.2351 111.601 23.0679H108.003C108.003 22.7181 107.928 22.4058 107.778 22.1309C107.636 21.8478 107.411 21.6271 107.103 21.4688C106.803 21.3023 106.412 21.219 105.929 21.219C105.529 21.219 105.183 21.2898 104.892 21.4313C104.6 21.5646 104.376 21.7478 104.217 21.981C104.067 22.2059 103.992 22.4558 103.992 22.7306C103.992 22.9388 104.034 23.1262 104.117 23.2928C104.209 23.451 104.355 23.5968 104.555 23.73C104.754 23.8633 105.013 23.9882 105.329 24.1048C105.654 24.2131 106.054 24.313 106.528 24.4046C107.503 24.6045 108.373 24.8669 109.139 25.1917C109.906 25.5082 110.514 25.9413 110.963 26.4909C111.413 27.0323 111.638 27.7444 111.638 28.6272C111.638 29.2269 111.505 29.7766 111.238 30.2763C110.972 30.776 110.589 31.2132 110.089 31.588C109.589 31.9545 108.99 32.2418 108.29 32.45C107.599 32.6499 106.82 32.7499 105.954 32.7499C104.696 32.7499 103.63 32.525 102.756 32.0752C101.889 31.6255 101.232 31.055 100.782 30.3637C100.34 29.6641 100.12 28.9479 100.12 28.215H103.53C103.547 28.7063 103.672 29.1019 103.905 29.4018C104.147 29.7016 104.45 29.9181 104.817 30.0514C105.192 30.1847 105.596 30.2513 106.029 30.2513C106.495 30.2513 106.882 30.1888 107.191 30.0639C107.499 29.9306 107.732 29.7557 107.89 29.5392C108.057 29.3143 108.14 29.0561 108.14 28.7646ZM117.485 13.311V32.5H113.887V13.311H117.485ZM116.972 25.2666H115.986C115.994 24.3255 116.119 23.4594 116.36 22.6681C116.602 21.8686 116.947 21.1773 117.397 20.5943C117.847 20.003 118.384 19.5449 119.009 19.2201C119.642 18.8953 120.341 18.7329 121.108 18.7329C121.774 18.7329 122.378 18.8287 122.919 19.0202C123.469 19.2035 123.939 19.5033 124.331 19.9197C124.731 20.3278 125.039 20.865 125.255 21.5313C125.472 22.1976 125.58 23.0054 125.58 23.9549V32.5H121.957V23.9299C121.957 23.3303 121.87 22.8597 121.695 22.5182C121.528 22.1684 121.283 21.9227 120.958 21.7811C120.641 21.6312 120.25 21.5563 119.783 21.5563C119.267 21.5563 118.826 21.6521 118.459 21.8436C118.101 22.0352 117.814 22.3017 117.597 22.6432C117.381 22.9763 117.222 23.3677 117.122 23.8175C117.022 24.2672 116.972 24.7503 116.972 25.2666ZM139.085 26.466H142.82C142.745 27.6903 142.408 28.7771 141.808 29.7266C141.217 30.676 140.388 31.4173 139.322 31.9503C138.264 32.4833 136.99 32.7499 135.499 32.7499C134.333 32.7499 133.288 32.55 132.364 32.1502C131.439 31.7421 130.648 31.1591 129.99 30.4012C129.34 29.6433 128.845 28.7272 128.503 27.6528C128.162 26.5784 127.991 25.3749 127.991 24.0424V22.7806C127.991 21.448 128.166 20.2445 128.516 19.1701C128.874 18.0874 129.382 17.1671 130.04 16.4092C130.706 15.6513 131.502 15.0683 132.426 14.6602C133.351 14.2521 134.383 14.0481 135.524 14.0481C137.04 14.0481 138.319 14.3229 139.36 14.8726C140.409 15.4223 141.221 16.1802 141.796 17.1463C142.379 18.1124 142.729 19.2118 142.845 20.4444H139.097C139.056 19.7115 138.91 19.091 138.66 18.583C138.41 18.0666 138.031 17.6793 137.523 17.4211C137.023 17.1546 136.357 17.0214 135.524 17.0214C134.9 17.0214 134.354 17.138 133.888 17.3712C133.421 17.6044 133.03 17.9583 132.713 18.4331C132.397 18.9078 132.16 19.5075 132.001 20.232C131.851 20.9483 131.776 21.7895 131.776 22.7556V24.0424C131.776 24.9835 131.847 25.8122 131.989 26.5284C132.13 27.2364 132.347 27.836 132.638 28.3274C132.938 28.8104 133.321 29.1769 133.788 29.4268C134.263 29.6683 134.833 29.7891 135.499 29.7891C136.282 29.7891 136.928 29.6641 137.436 29.4143C137.944 29.1644 138.331 28.7938 138.598 28.3024C138.872 27.811 139.035 27.1989 139.085 26.466ZM144.482 25.8788V25.6164C144.482 24.6253 144.623 23.7134 144.906 22.8805C145.19 22.0393 145.602 21.3106 146.143 20.6943C146.685 20.078 147.351 19.5991 148.142 19.2576C148.933 18.9078 149.841 18.7329 150.866 18.7329C151.89 18.7329 152.802 18.9078 153.601 19.2576C154.401 19.5991 155.071 20.078 155.613 20.6943C156.163 21.3106 156.579 22.0393 156.862 22.8805C157.145 23.7134 157.287 24.6253 157.287 25.6164V25.8788C157.287 26.8616 157.145 27.7735 156.862 28.6147C156.579 29.4476 156.163 30.1763 155.613 30.801C155.071 31.4173 154.405 31.8962 153.614 32.2377C152.823 32.5791 151.915 32.7499 150.891 32.7499C149.866 32.7499 148.954 32.5791 148.155 32.2377C147.363 31.8962 146.693 31.4173 146.143 30.801C145.602 30.1763 145.19 29.4476 144.906 28.6147C144.623 27.7735 144.482 26.8616 144.482 25.8788ZM148.08 25.6164V25.8788C148.08 26.4451 148.13 26.974 148.23 27.4654C148.33 27.9568 148.488 28.3899 148.704 28.7646C148.929 29.1311 149.221 29.4184 149.579 29.6266C149.937 29.8349 150.374 29.939 150.891 29.939C151.39 29.939 151.819 29.8349 152.177 29.6266C152.535 29.4184 152.823 29.1311 153.039 28.7646C153.256 28.3899 153.414 27.9568 153.514 27.4654C153.622 26.974 153.676 26.4451 153.676 25.8788V25.6164C153.676 25.0668 153.622 24.5504 153.514 24.0673C153.414 23.576 153.252 23.1429 153.027 22.7681C152.81 22.385 152.523 22.0851 152.165 21.8686C151.807 21.6521 151.374 21.5438 150.866 21.5438C150.358 21.5438 149.924 21.6521 149.566 21.8686C149.216 22.0851 148.929 22.385 148.704 22.7681C148.488 23.1429 148.33 23.576 148.23 24.0673C148.13 24.5504 148.08 25.0668 148.08 25.6164ZM163.021 21.8686V32.5H159.423V18.9828H162.796L163.021 21.8686ZM162.496 25.2666H161.522C161.522 24.2672 161.651 23.3677 161.909 22.5682C162.167 21.7603 162.53 21.0732 162.996 20.5069C163.462 19.9322 164.016 19.495 164.658 19.1951C165.307 18.887 166.032 18.7329 166.831 18.7329C167.464 18.7329 168.043 18.8245 168.568 19.0077C169.093 19.191 169.542 19.4825 169.917 19.8822C170.3 20.282 170.592 20.8109 170.792 21.4688C171 22.1268 171.104 22.9305 171.104 23.8799V32.5H167.481V23.8675C167.481 23.2678 167.398 22.8014 167.231 22.4683C167.065 22.1351 166.819 21.9019 166.494 21.7687C166.178 21.6271 165.786 21.5563 165.32 21.5563C164.837 21.5563 164.416 21.6521 164.058 21.8436C163.708 22.0352 163.417 22.3017 163.183 22.6432C162.959 22.9763 162.788 23.3677 162.671 23.8175C162.555 24.2672 162.496 24.7503 162.496 25.2666ZM180.461 18.9828V21.5313H172.591V18.9828H180.461ZM174.539 15.6472H178.137V28.4273C178.137 28.8188 178.187 29.1186 178.287 29.3268C178.396 29.535 178.554 29.6808 178.762 29.7641C178.97 29.839 179.233 29.8765 179.549 29.8765C179.774 29.8765 179.974 29.8682 180.149 29.8515C180.332 29.8265 180.486 29.8015 180.611 29.7766L180.623 32.425C180.315 32.525 179.982 32.6041 179.624 32.6624C179.266 32.7207 178.87 32.7499 178.437 32.7499C177.646 32.7499 176.955 32.6208 176.363 32.3626C175.78 32.0961 175.331 31.6713 175.014 31.0883C174.698 30.5053 174.539 29.7391 174.539 28.7896V15.6472ZM186.108 21.9311V32.5H182.51V18.9828H185.895L186.108 21.9311ZM190.18 18.8953L190.118 22.2309C189.943 22.2059 189.731 22.1851 189.481 22.1684C189.239 22.1434 189.019 22.1309 188.819 22.1309C188.311 22.1309 187.869 22.1976 187.495 22.3308C187.128 22.4558 186.82 22.6432 186.57 22.893C186.329 23.1429 186.145 23.4469 186.02 23.805C185.904 24.1631 185.837 24.5712 185.82 25.0293L185.096 24.8044C185.096 23.9299 185.183 23.1262 185.358 22.3933C185.533 21.6521 185.787 21.0066 186.12 20.4569C186.462 19.9072 186.878 19.4825 187.37 19.1826C187.861 18.8828 188.423 18.7329 189.056 18.7329C189.256 18.7329 189.46 18.7496 189.668 18.7829C189.877 18.8079 190.047 18.8453 190.18 18.8953ZM190.93 25.8788V25.6164C190.93 24.6253 191.072 23.7134 191.355 22.8805C191.638 22.0393 192.05 21.3106 192.592 20.6943C193.133 20.078 193.799 19.5991 194.59 19.2576C195.382 18.9078 196.289 18.7329 197.314 18.7329C198.338 18.7329 199.25 18.9078 200.05 19.2576C200.849 19.5991 201.52 20.078 202.061 20.6943C202.611 21.3106 203.027 22.0393 203.31 22.8805C203.594 23.7134 203.735 24.6253 203.735 25.6164V25.8788C203.735 26.8616 203.594 27.7735 203.31 28.6147C203.027 29.4476 202.611 30.1763 202.061 30.801C201.52 31.4173 200.854 31.8962 200.062 32.2377C199.271 32.5791 198.363 32.7499 197.339 32.7499C196.314 32.7499 195.402 32.5791 194.603 32.2377C193.812 31.8962 193.141 31.4173 192.592 30.801C192.05 30.1763 191.638 29.4476 191.355 28.6147C191.072 27.7735 190.93 26.8616 190.93 25.8788ZM194.528 25.6164V25.8788C194.528 26.4451 194.578 26.974 194.678 27.4654C194.778 27.9568 194.936 28.3899 195.153 28.7646C195.378 29.1311 195.669 29.4184 196.027 29.6266C196.385 29.8349 196.823 29.939 197.339 29.939C197.839 29.939 198.268 29.8349 198.626 29.6266C198.984 29.4184 199.271 29.1311 199.488 28.7646C199.704 28.3899 199.862 27.9568 199.962 27.4654C200.071 26.974 200.125 26.4451 200.125 25.8788V25.6164C200.125 25.0668 200.071 24.5504 199.962 24.0673C199.862 23.576 199.7 23.1429 199.475 22.7681C199.259 22.385 198.971 22.0851 198.613 21.8686C198.255 21.6521 197.822 21.5438 197.314 21.5438C196.806 21.5438 196.373 21.6521 196.015 21.8686C195.665 22.0851 195.378 22.385 195.153 22.7681C194.936 23.1429 194.778 23.576 194.678 24.0673C194.578 24.5504 194.528 25.0668 194.528 25.6164ZM209.744 13.311V32.5H206.134V13.311H209.744Z" fill="#E1E1E6"/>
</svg>
